<svg id="Layer_1" data-name="Layer 1" xmlns="http://www.w3.org/2000/svg" xmlns:xlink="http://www.w3.org/1999/xlink" viewBox="0 0 804.71 458.26"><defs><style>.cls-1,.cls-2,.cls-3,.cls-4,.cls-5,.cls-6,.cls-7,.cls-8{stroke:#fff;stroke-miterlimit:10;stroke-width:0.1px;}.cls-1{fill:url(#linear-gradient);}.cls-2{fill:url(#linear-gradient-2);}.cls-3{fill:url(#linear-gradient-3);}.cls-4{fill:url(#linear-gradient-4);}.cls-5{fill:url(#linear-gradient-5);}.cls-6{fill:url(#linear-gradient-6);}.cls-7{fill:url(#linear-gradient-7);}.cls-8{fill:url(#linear-gradient-8);}</style><linearGradient id="linear-gradient" x1="401.93" y1="296.67" x2="-21.48" y2="248.32" gradientUnits="userSpaceOnUse"><stop offset="0" stop-color="#074049"/><stop offset="0.06" stop-color="#0f7087"/><stop offset="0.22" stop-color="#5ba7b9"/><stop offset="0.6" stop-color="#a6dce9"/><stop offset="0.79" stop-color="#c7f4ff"/></linearGradient><linearGradient id="linear-gradient-2" x1="392.04" y1="237.84" x2="131.39" y2="-173.48" gradientUnits="userSpaceOnUse"><stop offset="0.06" stop-color="#1a99ad"/><stop offset="0.23" stop-color="#20a6bc"/><stop offset="0.28" stop-color="#3eb4c8"/><stop offset="0.38" stop-color="#79cfe0"/><stop offset="0.47" stop-color="#a3e3f1"/><stop offset="0.54" stop-color="#bdeffb"/><stop offset="0.58" stop-color="#c7f4ff"/></linearGradient><linearGradient id="linear-gradient-3" x1="4828.4" y1="300.58" x2="4151.3" y2="223.44" gradientTransform="matrix(-1, 0, 0, 1, 5198.03, 0)" gradientUnits="userSpaceOnUse"><stop offset="0" stop-color="#604901"/><stop offset="0.03" stop-color="#967402"/><stop offset="0.05" stop-color="#c49902"/><stop offset="0.07" stop-color="#e4b203"/><stop offset="0.09" stop-color="#f8c203"/><stop offset="0.11" stop-color="#ffc803"/><stop offset="0.14" stop-color="#ffd230"/><stop offset="0.18" stop-color="#ffdb5c"/><stop offset="0.22" stop-color="#ffe280"/><stop offset="0.26" stop-color="#ffe89c"/><stop offset="0.3" stop-color="#ffedb0"/><stop offset="0.35" stop-color="#ffefbc"/><stop offset="0.39" stop-color="#fff0c0"/></linearGradient><linearGradient id="linear-gradient-4" x1="4793.33" y1="257.87" x2="4509" y2="-205.38" gradientTransform="matrix(-1, 0, 0, 1, 5198.03, 0)" gradientUnits="userSpaceOnUse"><stop offset="0.21" stop-color="#ffd550"/><stop offset="0.43" stop-color="#fce9b6"/><stop offset="0.82" stop-color="#fff0c0"/></linearGradient><linearGradient id="linear-gradient-5" x1="12686.94" y1="347.23" x2="13059.41" y2="160.81" gradientTransform="matrix(-1, 0, 0, 1, 13513.61, 0)" gradientUnits="userSpaceOnUse"><stop offset="0.15" stop-color="#d9167e"/><stop offset="0.2" stop-color="#e4288f"/><stop offset="0.29" stop-color="#f23fa4"/><stop offset="0.35" stop-color="#f748ac"/><stop offset="0.4" stop-color="#f961b8"/><stop offset="0.47" stop-color="#fb85c8"/><stop offset="0.55" stop-color="#fda1d5"/><stop offset="0.63" stop-color="#feb5df"/><stop offset="0.71" stop-color="#ffc1e4"/><stop offset="0.79" stop-color="#ffc5e6"/></linearGradient><linearGradient id="linear-gradient-6" x1="12753.93" y1="192.55" x2="12919.84" y2="-99.68" gradientTransform="matrix(-1, 0, 0, 1, 13513.61, 0)" gradientUnits="userSpaceOnUse"><stop offset="0.13" stop-color="#d9167e"/><stop offset="0.59" stop-color="#ff83ca"/><stop offset="0.71" stop-color="#ff9cd6"/><stop offset="0.91" stop-color="#ffccec"/></linearGradient><linearGradient id="linear-gradient-7" x1="136.34" y1="440.85" x2="-106.31" y2="-101.86" gradientTransform="matrix(1, 0, 0, 1, 0, 0)" xlink:href="#linear-gradient-5"/><linearGradient id="linear-gradient-8" x1="307.3" y1="194.97" x2="-102.96" y2="-75.03" gradientTransform="matrix(1, 0, 0, 1, 0, 0)" xlink:href="#linear-gradient-6"/></defs><title>3ducateIcon</title><path class="cls-1" d="M399.37,112.42l-79.13,43.52a9.27,9.27,0,0,1-1.18.84L206.8,221.5a8.35,8.35,0,0,0-.05,14.44l113.91,66.71a8.35,8.35,0,0,1-.06,14.44L201.69,385.52V454.7l6,3.45-.27.26,191.51-110.2A8.35,8.35,0,0,0,403.1,341V119.35A8.34,8.34,0,0,0,399.37,112.42Z" transform="translate(-0.79 -0.38)"/><path class="cls-2" d="M398.93,112.12,207.4,1.4l.27-.26-6,3.49V74.46l117.38,67.85a8.35,8.35,0,0,1,1.17,13.63l79.13-43.52C399.22,112.32,399.08,112.21,398.93,112.12Z" transform="translate(-0.79 -0.38)"/><path class="cls-3" d="M406.78,112.42l79.14,43.52a8.5,8.5,0,0,0,1.17.84L599.36,221.5a8.35,8.35,0,0,1,0,14.44L485.5,302.65a8.35,8.35,0,0,0,.05,14.44l118.92,68.43V454.7l-6,3.45.26.26L407.24,348.21a8.34,8.34,0,0,1-4.18-7.24V119.35A8.33,8.33,0,0,1,406.78,112.42Z" transform="translate(-0.79 -0.38)"/><path class="cls-4" d="M407.23,112.12,598.75,1.4l-.26-.26,6,3.49V74.46L487.09,142.31a8.34,8.34,0,0,0-1.17,13.63l-79.14-43.52C406.93,112.32,407.07,112.21,407.23,112.12Z" transform="translate(-0.79 -0.38)"/><path class="cls-5" d="M805.45,122.11l-.33,216.52a13.53,13.53,0,0,1-6.78,11.71l-187.68,108-5.72-3.81V385.21L732.18,312A13.51,13.51,0,0,0,739,300.29l.22-140a13.57,13.57,0,0,0-2-7.12l67.28-36.22A13.64,13.64,0,0,1,805.45,122.11Z" transform="translate(-0.79 -0.38)"/><path class="cls-6" d="M732.43,148.51,604.94,74.65V4.22L610.6,1.4l188.1,109a13.52,13.52,0,0,1,5.72,6.52l-67.28,36.22A13.42,13.42,0,0,0,732.43,148.51Z" transform="translate(-0.79 -0.38)"/><path class="cls-7" d="M.84,121.15l.33,216.52A13.55,13.55,0,0,0,8,349.38l187.68,108,5.72-3.81V384.25L74.11,311a13.53,13.53,0,0,1-6.78-11.71l-.21-140a13.47,13.47,0,0,1,2-7.12L1.88,115.94A13.46,13.46,0,0,0,.84,121.15Z" transform="translate(-0.79 -0.38)"/><path class="cls-8" d="M73.86,147.55,201.35,73.69V3.26L195.69.44l-188.1,109a13.5,13.5,0,0,0-5.71,6.52l67.27,36.22A13.51,13.51,0,0,1,73.86,147.55Z" transform="translate(-0.79 -0.38)"/></svg>
