<svg id="Layer_1" data-name="Layer 1" xmlns="http://www.w3.org/2000/svg" xmlns:xlink="http://www.w3.org/1999/xlink" viewBox="0 0 805.22 727.85"><defs><style>.cls-1,.cls-2,.cls-3,.cls-4,.cls-5,.cls-6,.cls-7,.cls-8{stroke:#fff;stroke-miterlimit:10;stroke-width:0.1px;}.cls-1{fill:url(#linear-gradient);}.cls-2{fill:url(#linear-gradient-2);}.cls-3{fill:url(#linear-gradient-3);}.cls-4{fill:url(#linear-gradient-4);}.cls-5{fill:url(#linear-gradient-5);}.cls-6{fill:url(#linear-gradient-6);}.cls-7{fill:url(#linear-gradient-7);}.cls-8{fill:url(#linear-gradient-8);}.cls-9{fill:url(#linear-gradient-9);}.cls-10{fill:url(#linear-gradient-10);}.cls-11{fill:none;}.cls-12{fill:url(#linear-gradient-11);}</style><linearGradient id="linear-gradient" x1="401.93" y1="296.67" x2="-21.48" y2="248.32" gradientUnits="userSpaceOnUse"><stop offset="0" stop-color="#074049"/><stop offset="0.06" stop-color="#0f7087"/><stop offset="0.22" stop-color="#5ba7b9"/><stop offset="0.6" stop-color="#a6dce9"/><stop offset="0.79" stop-color="#c7f4ff"/></linearGradient><linearGradient id="linear-gradient-2" x1="392.04" y1="237.84" x2="131.39" y2="-173.48" gradientUnits="userSpaceOnUse"><stop offset="0.06" stop-color="#1a99ad"/><stop offset="0.23" stop-color="#20a6bc"/><stop offset="0.28" stop-color="#3eb4c8"/><stop offset="0.38" stop-color="#79cfe0"/><stop offset="0.47" stop-color="#a3e3f1"/><stop offset="0.54" stop-color="#bdeffb"/><stop offset="0.58" stop-color="#c7f4ff"/></linearGradient><linearGradient id="linear-gradient-3" x1="4828.4" y1="300.58" x2="4151.3" y2="223.44" gradientTransform="matrix(-1, 0, 0, 1, 5198.03, 0)" gradientUnits="userSpaceOnUse"><stop offset="0" stop-color="#604901"/><stop offset="0.03" stop-color="#967402"/><stop offset="0.05" stop-color="#c49902"/><stop offset="0.07" stop-color="#e4b203"/><stop offset="0.09" stop-color="#f8c203"/><stop offset="0.11" stop-color="#ffc803"/><stop offset="0.14" stop-color="#ffd230"/><stop offset="0.18" stop-color="#ffdb5c"/><stop offset="0.22" stop-color="#ffe280"/><stop offset="0.26" stop-color="#ffe89c"/><stop offset="0.3" stop-color="#ffedb0"/><stop offset="0.35" stop-color="#ffefbc"/><stop offset="0.39" stop-color="#fff0c0"/></linearGradient><linearGradient id="linear-gradient-4" x1="4793.33" y1="257.87" x2="4509" y2="-205.38" gradientTransform="matrix(-1, 0, 0, 1, 5198.03, 0)" gradientUnits="userSpaceOnUse"><stop offset="0.21" stop-color="#ffd550"/><stop offset="0.43" stop-color="#fce9b6"/><stop offset="0.82" stop-color="#fff0c0"/></linearGradient><linearGradient id="linear-gradient-5" x1="12686.94" y1="347.23" x2="13059.41" y2="160.81" gradientTransform="matrix(-1, 0, 0, 1, 13513.61, 0)" gradientUnits="userSpaceOnUse"><stop offset="0.15" stop-color="#d9167e"/><stop offset="0.2" stop-color="#e4288f"/><stop offset="0.29" stop-color="#f23fa4"/><stop offset="0.35" stop-color="#f748ac"/><stop offset="0.4" stop-color="#f961b8"/><stop offset="0.47" stop-color="#fb85c8"/><stop offset="0.55" stop-color="#fda1d5"/><stop offset="0.63" stop-color="#feb5df"/><stop offset="0.71" stop-color="#ffc1e4"/><stop offset="0.79" stop-color="#ffc5e6"/></linearGradient><linearGradient id="linear-gradient-6" x1="12753.93" y1="192.55" x2="12919.84" y2="-99.68" gradientTransform="matrix(-1, 0, 0, 1, 13513.61, 0)" gradientUnits="userSpaceOnUse"><stop offset="0.13" stop-color="#d9167e"/><stop offset="0.59" stop-color="#ff83ca"/><stop offset="0.71" stop-color="#ff9cd6"/><stop offset="0.91" stop-color="#ffccec"/></linearGradient><linearGradient id="linear-gradient-7" x1="136.34" y1="440.85" x2="-106.31" y2="-101.86" gradientTransform="matrix(1, 0, 0, 1, 0, 0)" xlink:href="#linear-gradient-5"/><linearGradient id="linear-gradient-8" x1="307.3" y1="194.97" x2="-102.96" y2="-75.03" gradientTransform="matrix(1, 0, 0, 1, 0, 0)" xlink:href="#linear-gradient-6"/><linearGradient id="linear-gradient-9" x1="680.93" y1="619.15" x2="948.46" y2="619.15" gradientUnits="userSpaceOnUse"><stop offset="0.15" stop-color="#ffc803"/><stop offset="0.16" stop-color="#ffcc18"/><stop offset="0.2" stop-color="#ffd53f"/><stop offset="0.24" stop-color="#ffdc62"/><stop offset="0.28" stop-color="#ffe27f"/><stop offset="0.33" stop-color="#ffe797"/><stop offset="0.38" stop-color="#ffebaa"/><stop offset="0.44" stop-color="#ffeeb6"/><stop offset="0.53" stop-color="#fff0be"/><stop offset="0.7" stop-color="#fff0c0"/></linearGradient><linearGradient id="linear-gradient-10" x1="149.9" y1="619.15" x2="-108.13" y2="619.15" gradientUnits="userSpaceOnUse"><stop offset="0.24" stop-color="#0f7087"/><stop offset="0.37" stop-color="#4698ab"/><stop offset="0.51" stop-color="#7dbfcf"/><stop offset="0.63" stop-color="#a5dce9"/><stop offset="0.73" stop-color="#beeef9"/><stop offset="0.79" stop-color="#c7f4ff"/></linearGradient><linearGradient id="linear-gradient-11" x1="126.62" y1="619.36" x2="690.28" y2="619.36" gradientUnits="userSpaceOnUse"><stop offset="0.36" stop-color="#0f7087"/><stop offset="0.7" stop-color="#ffc803"/></linearGradient></defs><title>3ducateLogo</title><path class="cls-1" d="M399.37,112.42l-79.13,43.52a9.27,9.27,0,0,1-1.18.84L206.8,221.5a8.35,8.35,0,0,0-.05,14.44l113.91,66.71a8.35,8.35,0,0,1-.06,14.44L201.69,385.52V454.7l6,3.45-.27.26,191.51-110.2A8.35,8.35,0,0,0,403.1,341V119.35A8.34,8.34,0,0,0,399.37,112.42Z" transform="translate(-0.54 -0.38)"/><path class="cls-2" d="M398.93,112.12,207.4,1.4l.27-.26-6,3.49V74.46l117.38,67.85a8.35,8.35,0,0,1,1.17,13.63l79.13-43.52C399.22,112.32,399.08,112.21,398.93,112.12Z" transform="translate(-0.54 -0.38)"/><path class="cls-3" d="M406.78,112.42l79.14,43.52a8.5,8.5,0,0,0,1.17.84L599.36,221.5a8.35,8.35,0,0,1,0,14.44L485.5,302.65a8.35,8.35,0,0,0,.05,14.44l118.92,68.43V454.7l-6,3.45.26.26L407.24,348.21a8.34,8.34,0,0,1-4.18-7.24V119.35A8.33,8.33,0,0,1,406.78,112.42Z" transform="translate(-0.54 -0.38)"/><path class="cls-4" d="M407.23,112.12,598.75,1.4l-.26-.26,6,3.49V74.46L487.09,142.31a8.34,8.34,0,0,0-1.17,13.63l-79.14-43.52C406.93,112.32,407.07,112.21,407.23,112.12Z" transform="translate(-0.54 -0.38)"/><path class="cls-5" d="M805.45,122.11l-.33,216.52a13.53,13.53,0,0,1-6.78,11.71l-187.68,108-5.72-3.81V385.21L732.18,312A13.51,13.51,0,0,0,739,300.29l.22-140a13.57,13.57,0,0,0-2-7.12l67.28-36.22A13.64,13.64,0,0,1,805.45,122.11Z" transform="translate(-0.54 -0.38)"/><path class="cls-6" d="M732.43,148.51,604.94,74.65V4.22L610.6,1.4l188.1,109a13.52,13.52,0,0,1,5.72,6.52l-67.28,36.22A13.42,13.42,0,0,0,732.43,148.51Z" transform="translate(-0.54 -0.38)"/><path class="cls-7" d="M.84,121.15l.33,216.52A13.55,13.55,0,0,0,8,349.38l187.68,108,5.72-3.81V384.25L74.11,311a13.53,13.53,0,0,1-6.78-11.71l-.21-140a13.47,13.47,0,0,1,2-7.12L1.88,115.94A13.46,13.46,0,0,0,.84,121.15Z" transform="translate(-0.54 -0.38)"/><path class="cls-8" d="M73.86,147.55,201.35,73.69V3.26L195.69.44l-188.1,109a13.5,13.5,0,0,0-5.71,6.52l67.27,36.22A13.51,13.51,0,0,1,73.86,147.55Z" transform="translate(-0.54 -0.38)"/><path class="cls-9" d="M800.56,510.54l-88.41,50.87a3.46,3.46,0,0,0-1.74,3V673.65a3.46,3.46,0,0,0,1.73,3l88.41,51.11a3.46,3.46,0,0,0,5.2-3V695.38a3.46,3.46,0,0,0-1.73-3l-68.36-39.52a3.47,3.47,0,0,1,0-6l42.17-24.31a3.47,3.47,0,0,0,0-6l-42.76-25a3.47,3.47,0,0,1,0-6L804,545.85a3.48,3.48,0,0,0,1.73-3v-29.3A3.46,3.46,0,0,0,800.56,510.54Z" transform="translate(-0.54 -0.38)"/><path class="cls-10" d="M5.74,510.54l88.4,50.87a3.46,3.46,0,0,1,1.74,3V673.65a3.46,3.46,0,0,1-1.73,3L5.74,727.76a3.46,3.46,0,0,1-5.2-3V695.38a3.46,3.46,0,0,1,1.73-3l68.36-39.52a3.47,3.47,0,0,0,0-6L28.47,622.54a3.47,3.47,0,0,1,0-6l42.76-25a3.47,3.47,0,0,0,0-6L2.28,545.85a3.47,3.47,0,0,1-1.74-3v-29.3A3.47,3.47,0,0,1,5.74,510.54Z" transform="translate(-0.54 -0.38)"/><path class="cls-11" d="M800.56,510.54l-88.41,50.87a3.46,3.46,0,0,0-1.74,3V673.65a3.46,3.46,0,0,0,1.73,3l88.41,51.11a3.46,3.46,0,0,0,5.2-3V695.38a3.46,3.46,0,0,0-1.73-3l-68.36-39.52a3.47,3.47,0,0,1,0-6l42.17-24.31a3.47,3.47,0,0,0,0-6l-42.76-25a3.47,3.47,0,0,1,0-6L804,545.85a3.48,3.48,0,0,0,1.73-3v-29.3A3.46,3.46,0,0,0,800.56,510.54Z" transform="translate(-0.54 -0.38)"/><path class="cls-11" d="M5.74,510.54l88.4,50.87a3.46,3.46,0,0,1,1.74,3V673.65a3.46,3.46,0,0,1-1.73,3L5.74,727.76a3.46,3.46,0,0,1-5.2-3V695.38a3.46,3.46,0,0,1,1.73-3l68.36-39.52a3.47,3.47,0,0,0,0-6L28.47,622.54a3.47,3.47,0,0,1,0-6l42.76-25a3.47,3.47,0,0,0,0-6L2.28,545.85a3.47,3.47,0,0,1-1.74-3v-29.3A3.47,3.47,0,0,1,5.74,510.54Z" transform="translate(-0.54 -0.38)"/><path class="cls-12" d="M225.64,592.07a50.93,50.93,0,0,0-13.21-18.9,55.44,55.44,0,0,0-20.54-11.28,88.55,88.55,0,0,0-26.51-3.76q-7.51,0-15.91.68A61.56,61.56,0,0,0,134,562a13.54,13.54,0,0,0-5.4,3.08,7.3,7.3,0,0,0-1.93,5.4V665q0,8.1,9.25,11.57a47.63,47.63,0,0,0,7.82,2.13q4.14.76,8.29,1.25t8,.58q3.86.09,7.13.09a82.34,82.34,0,0,0,25.94-3.85,54.19,54.19,0,0,0,20-11.48A50.4,50.4,0,0,0,225.83,646q4.53-11.67,4.54-27.29Q230.37,603.45,225.64,592.07Zm-30.76,57.66q-9.82,10.41-27.77,10.41c-2.69,0-5.43-.09-8.19-.29a45.61,45.61,0,0,1-7.42-1.06V579.54q3.27-.39,6.84-.68c2.38-.19,5-.29,8-.29A47.2,47.2,0,0,1,181.67,581a32.33,32.33,0,0,1,12.15,7.33,33.71,33.71,0,0,1,8,12.53,51,51,0,0,1,2.89,18Q204.72,639.31,194.88,649.73ZM302.1,681a62.11,62.11,0,0,1-20.63-3.18,42.49,42.49,0,0,1-15.33-9.07,38.85,38.85,0,0,1-9.55-14.07,49.15,49.15,0,0,1-3.28-18.42v-75.4c1-.25,2.67-.58,4.92-1a38.9,38.9,0,0,1,6.65-.58q6.94,0,10.13,2.51t3.18,9.25v64.22q0,12.15,6.75,18.61t17.16,6.46q10.41,0,17.16-6.46T326,635.27V560.83c1.16-.25,2.83-.58,5-1a37.17,37.17,0,0,1,6.55-.58q6.94,0,10.22,2.51t3.28,9.25v65.18a49.15,49.15,0,0,1-3.28,18.42,38.21,38.21,0,0,1-9.64,14.07,43.53,43.53,0,0,1-15.43,9.07A62.11,62.11,0,0,1,302.1,681Zm167-105.1a10.73,10.73,0,0,1-2.12,6.66,16.07,16.07,0,0,1-4.82,4.33,76.91,76.91,0,0,0-11.19-6,38,38,0,0,0-15.23-2.7q-16.39,0-26.13,10.6t-9.74,30.66q0,20.44,10,30.67t27,10.22a44.05,44.05,0,0,0,15.33-2.41,58.69,58.69,0,0,0,11.47-5.69,13.63,13.63,0,0,1,4.44,4.72,13.49,13.49,0,0,1,1.73,6.85,10.9,10.9,0,0,1-1.73,6,14.93,14.93,0,0,1-5.79,4.82,47.09,47.09,0,0,1-10.9,4.33A64.06,64.06,0,0,1,434,681a71.86,71.86,0,0,1-23.62-3.76,51.08,51.08,0,0,1-31.72-30.57Q374,635.07,374,619.45q0-15,4.63-26.51a55.34,55.34,0,0,1,12.63-19.28A53.58,53.58,0,0,1,410,561.8a63.51,63.51,0,0,1,22.66-4,72.25,72.25,0,0,1,15,1.44,46.19,46.19,0,0,1,11.57,4,21.5,21.5,0,0,1,7.33,5.78A11.26,11.26,0,0,1,469.1,575.87ZM689.41,565a17.82,17.82,0,0,1,.87,5.69q0,5.21-2.41,7.9a8.47,8.47,0,0,1-6.65,2.7H654.61v96.42c-1,.26-2.64.58-4.82,1a39.42,39.42,0,0,1-6.75.57q-7.34,0-10.42-2.7c-2.06-1.79-3.08-4.82-3.08-9.06v-86.2h-32.4a27.55,27.55,0,0,1-1.83-4.24,16.94,16.94,0,0,1-.87-5.59q0-5.4,2.41-8a8.62,8.62,0,0,1,6.65-2.61h84.08A19.42,19.42,0,0,1,689.41,565ZM586.28,649.29q-4.42-14-9.12-28.61t-9.31-28.32q-4.61-13.73-8.45-24.29-1.54-4.41-7.1-6.43a36,36,0,0,0-12.29-2,37.47,37.47,0,0,0-9.89,1.34,37,37,0,0,0-7.39,2.69q-2.12,5.57-5.09,13.34t-6.14,16.7q-3.17,8.94-6.63,18.44t-6.43,18.43q-3,8.92-5.56,16.51t-4.13,13c-.64,1.92-1.19,3.62-1.63,5.08a15.43,15.43,0,0,0-.68,4.52,8.53,8.53,0,0,0,3.65,7.39q3.65,2.6,10.18,2.59a21.76,21.76,0,0,0,5.47-.58c.32-.08.62-.18.94-.27L523,630.66h0q2.12-6.33,4.42-13l.3-.88L539.78,581h.81l.17.53h0l15.55,49.15h-.07l14.39,45.64a8.58,8.58,0,0,0,.75.73q2.77,2.4,9.5,2.4a20.15,20.15,0,0,0,8-1.44,15,15,0,0,0,5.28-3.55Q590.7,663.3,586.28,649.29Z" transform="translate(-0.54 -0.38)"/></svg>
