<svg id="Layer_1" data-name="Layer 1" xmlns="http://www.w3.org/2000/svg" xmlns:xlink="http://www.w3.org/1999/xlink" viewBox="0 0 815.41 725.69"><defs><style>.cls-1{fill:#fff;}.cls-1,.cls-2,.cls-3,.cls-4,.cls-5{stroke:#fff;stroke-miterlimit:10;stroke-width:0.1px;}.cls-2{fill:none;}.cls-3{fill:url(#linear-gradient);}.cls-4{fill:url(#linear-gradient-2);}.cls-5{fill:url(#linear-gradient-3);}.cls-6{fill:url(#linear-gradient-4);}.cls-7{fill:url(#linear-gradient-5);}.cls-8{fill:#440641;}</style><linearGradient id="linear-gradient" x1="512.24" y1="300.72" x2="500.66" y2="-291.38" gradientUnits="userSpaceOnUse"><stop offset="0.13" stop-color="#0f7087"/><stop offset="0.35" stop-color="#519fb2"/><stop offset="0.65" stop-color="#a6dce9"/><stop offset="0.79" stop-color="#c7f4ff"/></linearGradient><linearGradient id="linear-gradient-2" x1="325.28" y1="274.03" x2="-89.19" y2="598.54" gradientUnits="userSpaceOnUse"><stop offset="0.15" stop-color="#ffc803"/><stop offset="0.23" stop-color="#ffd230"/><stop offset="0.32" stop-color="#ffdb5c"/><stop offset="0.41" stop-color="#ffe280"/><stop offset="0.51" stop-color="#ffe89c"/><stop offset="0.6" stop-color="#ffedb0"/><stop offset="0.7" stop-color="#ffefbc"/><stop offset="0.79" stop-color="#fff0c0"/></linearGradient><linearGradient id="linear-gradient-3" x1="400.45" y1="476.81" x2="922.2" y2="765.1" gradientUnits="userSpaceOnUse"><stop offset="0" stop-color="#d9167e"/><stop offset="0.19" stop-color="#d9167e"/><stop offset="0.23" stop-color="#db1f83"/><stop offset="0.28" stop-color="#e13792"/><stop offset="0.29" stop-color="#e13993"/><stop offset="0.37" stop-color="#e64ea0"/><stop offset="0.48" stop-color="#ee73b6"/><stop offset="0.51" stop-color="#f388c3"/><stop offset="0.56" stop-color="#f89fd1"/><stop offset="0.62" stop-color="#fcb0db"/><stop offset="0.68" stop-color="#febae1"/><stop offset="0.76" stop-color="#ffbde3"/></linearGradient><linearGradient id="linear-gradient-4" x1="414.79" y1="367.5" x2="684.28" y2="673.75" gradientTransform="matrix(0.98, 0.09, -0.09, 0.91, 51.26, 35.72)" gradientUnits="userSpaceOnUse"><stop offset="0"/><stop offset="0.67" stop-color="#d1d1d1" stop-opacity="0"/></linearGradient><linearGradient id="linear-gradient-5" x1="406.23" y1="354.89" x2="537.08" y2="503.58" xlink:href="#linear-gradient-4"/></defs><title>DiceyIconLarge</title><path class="cls-1" d="M336.9,160.4l284,171.5a41.43,41.43,0,0,1,20.2,36.63L817,364.83a72.76,72.76,0,0,0-9.75-36.66l-167.43-290a72.78,72.78,0,0,0-63-36.39H241.91a72.72,72.72,0,0,0-33.22,8l82.9,152A41.49,41.49,0,0,1,336.9,160.4Z" transform="translate(-1.63 -1.73)"/><path class="cls-1" d="M270.05,526.87l3.38-331.08a41.3,41.3,0,0,1,18.16-34l-82.9-152a72.82,72.82,0,0,0-29.83,28.35l-167.43,290a72.82,72.82,0,0,0,0,72.8L178.86,691a72.73,72.73,0,0,0,25.85,26.15L293,564.55A41.45,41.45,0,0,1,270.05,526.87Z" transform="translate(-1.63 -1.73)"/><path class="cls-1" d="M641.1,368.53a41.44,41.44,0,0,1-21.51,35.77L332.2,563.88a41.3,41.3,0,0,1-39.2.67L204.71,717.12a72.77,72.77,0,0,0,37.2,10.25H576.77a72.79,72.79,0,0,0,63-36.4L807.24,401A72.7,72.7,0,0,0,817,364.83Z" transform="translate(-1.63 -1.73)"/><path class="cls-1" d="M656.38,384,375.45,198.59c-27.42-18.1-66.07-3.57-69.26,26L273.53,527.37c-3.16,29.34,30.92,51.56,61.53,40.11L648.65,450.17C679.32,438.69,683.61,402,656.38,384Z" transform="translate(-1.63 -1.73)"/><path class="cls-1" d="M620.9,331.9l-284-171.5a41.91,41.91,0,0,0-63.47,35.39l-3.38,331.08a41.92,41.92,0,0,0,62.15,37L619.59,404.3a41.85,41.85,0,0,0,1.31-72.4Z" transform="translate(-1.63 -1.73)"/><path class="cls-2" d="M600.93,11.18H219.65a20.51,20.51,0,0,0-17.77,10.26L11.24,351.64a20.5,20.5,0,0,0,0,20.52l190.64,330.2a20.52,20.52,0,0,0,17.77,10.27H600.93a20.52,20.52,0,0,0,17.77-10.27l190.65-330.2a20.55,20.55,0,0,0,0-20.52L618.7,21.44A20.51,20.51,0,0,0,600.93,11.18Z" transform="translate(-1.63 -1.73)"/><path class="cls-1" d="M633.93,365.74l170-4.34M216.6,19.86l78.59,146.41m3.16,389.85-86.92,148.4m403.38-374.2L340.27,164.53c-26.8-16.18-61,2.91-61.36,34.21L275.63,518.8c-.31,31,33,50.84,60.09,35.78L613.54,400.31C640.72,385.22,641.42,346.39,614.81,330.32Z" transform="translate(-1.63 -1.73)"/><path class="cls-3" d="M338.82,165.8l276.49,167A40.38,40.38,0,0,1,635,368.42l171.23-3.6a70.73,70.73,0,0,0-9.48-35.68L633.72,46.8a70.87,70.87,0,0,0-61.38-35.43h-326A70.75,70.75,0,0,0,214,19.2l80.7,148A40.42,40.42,0,0,1,338.82,165.8Z" transform="translate(-1.63 -1.73)"/><path class="cls-4" d="M273.73,522.58,277,200.25a40.16,40.16,0,0,1,17.67-33.09L214,19.2a70.74,70.74,0,0,0-29,27.6L22,329.14A70.87,70.87,0,0,0,22,400L185,682.34a70.75,70.75,0,0,0,25.16,25.46l85.95-148.54A40.36,40.36,0,0,1,273.73,522.58Z" transform="translate(-1.63 -1.73)"/><path class="cls-5" d="M635,368.42a40.37,40.37,0,0,1-21,34.83L334.24,558.61a40.22,40.22,0,0,1-38.17.65L210.12,707.8a70.79,70.79,0,0,0,36.21,10h326a70.88,70.88,0,0,0,61.38-35.44L796.73,400a70.88,70.88,0,0,0,9.48-35.19Z" transform="translate(-1.63 -1.73)"/><path class="cls-6" d="M649.85,383.51,376.35,203c-26.7-17.62-64.33-3.48-67.44,25.35L277.12,523.07c-3.08,28.57,30.1,50.19,59.91,39l305.29-114.2C672.18,436.73,676.36,401,649.85,383.51Z" transform="translate(-1.63 -1.73)"/><path class="cls-1" d="M615.31,332.76l-276.49-167A40.79,40.79,0,0,0,277,200.25l-3.3,322.33a40.81,40.81,0,0,0,60.51,36L614,403.25a40.74,40.74,0,0,0,1.28-70.49Z" transform="translate(-1.63 -1.73)"/><path class="cls-7" d="M526.34,384,393.55,296.37c-13-8.56-31.24-1.69-32.75,12.31l-15.43,143.1c-1.5,13.87,14.61,24.37,29.08,19l148.23-55.45C537.18,409.86,539.21,392.52,526.34,384Z" transform="translate(-1.63 -1.73)"/><path class="cls-8" d="M523,350.8,375.88,261.93A21.71,21.71,0,0,0,343,280.27l-1.76,171.56A21.73,21.73,0,0,0,373.44,471l148.92-82.7A21.68,21.68,0,0,0,523,350.8Z" transform="translate(-1.63 -1.73)"/></svg>
