<svg id="Layer_1" data-name="Layer 1" xmlns="http://www.w3.org/2000/svg" xmlns:xlink="http://www.w3.org/1999/xlink" viewBox="0 0 181.55 71.36"><defs><style>.cls-1{fill:#440641;}.cls-2{fill:#fff;}.cls-2,.cls-3,.cls-4,.cls-5,.cls-6{stroke:#fff;stroke-miterlimit:10;stroke-width:0.1px;}.cls-3{fill:none;}.cls-4{fill:url(#linear-gradient);}.cls-5{fill:url(#linear-gradient-2);}.cls-6{fill:url(#linear-gradient-3);}.cls-7{fill:url(#linear-gradient-4);}.cls-8{fill:url(#linear-gradient-5);}</style><linearGradient id="linear-gradient" x1="50.82" y1="29.8" x2="49.68" y2="-28.35" gradientUnits="userSpaceOnUse"><stop offset="0.13" stop-color="#0f7087"/><stop offset="0.35" stop-color="#519fb2"/><stop offset="0.65" stop-color="#a6dce9"/><stop offset="0.79" stop-color="#c7f4ff"/></linearGradient><linearGradient id="linear-gradient-2" x1="32.46" y1="27.18" x2="-8.25" y2="59.05" gradientUnits="userSpaceOnUse"><stop offset="0.15" stop-color="#ffc803"/><stop offset="0.23" stop-color="#ffd230"/><stop offset="0.32" stop-color="#ffdb5c"/><stop offset="0.41" stop-color="#ffe280"/><stop offset="0.51" stop-color="#ffe89c"/><stop offset="0.6" stop-color="#ffedb0"/><stop offset="0.7" stop-color="#ffefbc"/><stop offset="0.79" stop-color="#fff0c0"/></linearGradient><linearGradient id="linear-gradient-3" x1="39.84" y1="47.09" x2="91.08" y2="75.4" gradientUnits="userSpaceOnUse"><stop offset="0" stop-color="#d9167e"/><stop offset="0.19" stop-color="#d9167e"/><stop offset="0.23" stop-color="#db1f83"/><stop offset="0.28" stop-color="#e13792"/><stop offset="0.29" stop-color="#e13993"/><stop offset="0.37" stop-color="#e64ea0"/><stop offset="0.48" stop-color="#ee73b6"/><stop offset="0.51" stop-color="#f388c3"/><stop offset="0.56" stop-color="#f89fd1"/><stop offset="0.62" stop-color="#fcb0db"/><stop offset="0.68" stop-color="#febae1"/><stop offset="0.76" stop-color="#ffbde3"/></linearGradient><linearGradient id="linear-gradient-4" x1="55.3" y1="65.88" x2="81.77" y2="95.96" gradientTransform="matrix(0.98, 0.09, -0.09, 0.91, -6.06, -24.64)" gradientUnits="userSpaceOnUse"><stop offset="0"/><stop offset="0.67" stop-color="#d1d1d1" stop-opacity="0"/></linearGradient><linearGradient id="linear-gradient-5" x1="54.46" y1="64.64" x2="67.31" y2="79.24" xlink:href="#linear-gradient-4"/></defs><title>DiceyLogoSmall</title><path class="cls-1" d="M102.09,65.17a3.8,3.8,0,0,0,2.26.59,6.5,6.5,0,0,0,1.44-.17,7.46,7.46,0,0,0,1.31-.42,3.15,3.15,0,0,1,.56.81,2.59,2.59,0,0,1,.23,1.11,2.48,2.48,0,0,1-1.12,2.06,6.31,6.31,0,0,1-3.62.81A8.24,8.24,0,0,1,98,68.48Q96.08,67,96.08,63.59V44.51c.22-.06.55-.13,1-.21a7.58,7.58,0,0,1,1.39-.12,3.45,3.45,0,0,1,2.14.54,2.3,2.3,0,0,1,.69,1.91v3.45h6.11a3.6,3.6,0,0,1,.37.87,4,4,0,0,1,.17,1.17,2.17,2.17,0,0,1-.5,1.58,1.81,1.81,0,0,1-1.33.5h-4.82v9.06A2.18,2.18,0,0,0,102.09,65.17Z" transform="translate(-0.63 -0.39)"/><path class="cls-1" d="M115.91,61.89A5,5,0,0,0,118.08,65a7.46,7.46,0,0,0,3.9,1,9.6,9.6,0,0,0,3.23-.52,11.48,11.48,0,0,0,2.39-1.1,2.7,2.7,0,0,1,1,.92,2.23,2.23,0,0,1,.38,1.24,2.2,2.2,0,0,1-.56,1.48,4.58,4.58,0,0,1-1.54,1.1,9.53,9.53,0,0,1-2.31.71,16.14,16.14,0,0,1-2.87.25,14.36,14.36,0,0,1-4.47-.67,9.13,9.13,0,0,1-3.45-2A9.31,9.31,0,0,1,111.49,64a12.12,12.12,0,0,1-.82-4.66,11.85,11.85,0,0,1,.79-4.49,9.2,9.2,0,0,1,2.15-3.2,8.47,8.47,0,0,1,3.13-1.91,11.37,11.37,0,0,1,3.79-.63,10.49,10.49,0,0,1,3.74.65,8.4,8.4,0,0,1,2.91,1.79,7.91,7.91,0,0,1,1.89,2.74,8.67,8.67,0,0,1,.69,3.47,2.33,2.33,0,0,1-.6,1.75,3,3,0,0,1-1.69.75ZM120.53,53a4.66,4.66,0,0,0-3.41,1.35,5.73,5.73,0,0,0-1.54,3.85l9.23-1.37a4.61,4.61,0,0,0-1.2-2.68A3.94,3.94,0,0,0,120.53,53Z" transform="translate(-0.63 -0.39)"/><path class="cls-1" d="M144,53.28a6.24,6.24,0,0,0-2.31.42,5.39,5.39,0,0,0-1.83,1.2,5.78,5.78,0,0,0-1.22,2,7.24,7.24,0,0,0-.46,2.7,6.16,6.16,0,0,0,1.62,4.64,5.8,5.8,0,0,0,4.2,1.56,7.09,7.09,0,0,0,2.52-.4,15.24,15.24,0,0,0,1.89-.85,3.52,3.52,0,0,1,.93,1,2.18,2.18,0,0,1,.36,1.24A2.68,2.68,0,0,1,148.05,69a9.33,9.33,0,0,1-4.49.92,13.87,13.87,0,0,1-4.34-.65,9,9,0,0,1-3.39-2,8.74,8.74,0,0,1-2.18-3.27,12.15,12.15,0,0,1-.77-4.53,11.61,11.61,0,0,1,.83-4.59A9.09,9.09,0,0,1,136,51.68a9.31,9.31,0,0,1,3.34-2,12.73,12.73,0,0,1,4.08-.65,8.79,8.79,0,0,1,4.45,1,2.82,2.82,0,0,1,1.66,2.39,2.22,2.22,0,0,1-.35,1.21,3.4,3.4,0,0,1-.81.87,16.16,16.16,0,0,0-1.86-.85A6.66,6.66,0,0,0,144,53.28Z" transform="translate(-0.63 -0.39)"/><path class="cls-1" d="M170.21,51.2a9,9,0,0,0-6.1-2,10,10,0,0,0-2.67.34,12.17,12.17,0,0,0-1.65.59V38.65a5.6,5.6,0,0,0-.78-3.42,3.07,3.07,0,0,0-2.51-1,5.41,5.41,0,0,0-1.59.22c-.5.15-.87.27-1.12.37v31A9.78,9.78,0,0,0,154,68a2,2,0,0,0,.69,1.5,2.29,2.29,0,0,0,.31.18,3.41,3.41,0,0,0,2.09.58,5.41,5.41,0,0,0,1.59-.22c.49-.15.87-.27,1.12-.37V54.38a10.13,10.13,0,0,1,1.29-.59,5.94,5.94,0,0,1,2.1-.36,4.22,4.22,0,0,1,2.86,1,3.83,3.83,0,0,1,1.1,3V67.57a2.31,2.31,0,0,0,.71,1.94,3.71,3.71,0,0,0,2.23.55,6.9,6.9,0,0,0,1.41-.13q.66-.12,1-.21V57.18C172.48,54.51,171.73,52.52,170.21,51.2Z" transform="translate(-0.63 -0.39)"/><path class="cls-1" d="M110.71,3.35a2.79,2.79,0,0,1,.85-2.06,2.94,2.94,0,0,1,2.18-.85,2.86,2.86,0,0,1,2.16.85,2.81,2.81,0,0,1,.83,2.06,2.87,2.87,0,0,1-3,2.95,2.94,2.94,0,0,1-2.18-.85A2.85,2.85,0,0,1,110.71,3.35Zm.41,6c.22-.06.55-.13,1-.21A6.77,6.77,0,0,1,113.49,9a3.51,3.51,0,0,1,2.18.54,2.31,2.31,0,0,1,.69,1.92V28.88l-1,.2a6.77,6.77,0,0,1-1.39.13,3.51,3.51,0,0,1-2.18-.54,2.3,2.3,0,0,1-.69-1.91Z" transform="translate(-0.63 -0.39)"/><path class="cls-1" d="M132,12.83a6.35,6.35,0,0,0-2.3.41,5.09,5.09,0,0,0-1.83,1.21,5.7,5.7,0,0,0-1.23,1.95,7.29,7.29,0,0,0-.46,2.71,6.14,6.14,0,0,0,1.62,4.63A5.82,5.82,0,0,0,132,25.3a7.33,7.33,0,0,0,2.52-.39,14,14,0,0,0,1.89-.86,3.72,3.72,0,0,1,.94,1,2.28,2.28,0,0,1,.35,1.25A2.68,2.68,0,0,1,136,28.59a9.48,9.48,0,0,1-4.49.91,14,14,0,0,1-4.35-.64,9.05,9.05,0,0,1-3.39-2,8.7,8.7,0,0,1-2.18-3.26,12.39,12.39,0,0,1-.77-4.53,11.88,11.88,0,0,1,.83-4.6,9.1,9.1,0,0,1,5.62-5.24,12.62,12.62,0,0,1,4.07-.64,8.77,8.77,0,0,1,4.45,1,2.81,2.81,0,0,1,1.66,2.4,2.19,2.19,0,0,1-.35,1.2,3.4,3.4,0,0,1-.81.87,17.85,17.85,0,0,0-1.85-.85A7,7,0,0,0,132,12.83Z" transform="translate(-0.63 -0.39)"/><path class="cls-1" d="M145.63,21.43a5,5,0,0,0,2.16,3.08,7.43,7.43,0,0,0,3.91,1,9.75,9.75,0,0,0,3.22-.52,12.44,12.44,0,0,0,2.4-1.1,2.75,2.75,0,0,1,1,.91,2.26,2.26,0,0,1,.38,1.25,2.16,2.16,0,0,1-.57,1.47,4.59,4.59,0,0,1-1.53,1.11,9.68,9.68,0,0,1-2.31.7,15.26,15.26,0,0,1-2.87.25,14.27,14.27,0,0,1-4.47-.66,9,9,0,0,1-5.7-5.37,12.3,12.3,0,0,1-.81-4.65,11.81,11.81,0,0,1,.79-4.49,9.27,9.27,0,0,1,2.14-3.21,8.79,8.79,0,0,1,3.14-1.91,11.59,11.59,0,0,1,3.79-.62,10.53,10.53,0,0,1,3.74.64,8.55,8.55,0,0,1,2.91,1.79,8.29,8.29,0,0,1,1.89,2.74,8.72,8.72,0,0,1,.69,3.48,2.29,2.29,0,0,1-.61,1.74,3,3,0,0,1-1.68.75Zm4.62-8.85a4.66,4.66,0,0,0-3.41,1.35,5.68,5.68,0,0,0-1.54,3.84l9.23-1.37a4.59,4.59,0,0,0-1.21-2.68A4,4,0,0,0,150.25,12.58Z" transform="translate(-0.63 -0.39)"/><path class="cls-1" d="M104.91,2.1a3.56,3.56,0,0,0-2.19-.54,8.65,8.65,0,0,0-1.39.1,5.73,5.73,0,0,0-1,.23V9.42a10.67,10.67,0,0,0-1.78-.56,9.15,9.15,0,0,0-2.13-.23,12.34,12.34,0,0,0-4,.62,8.7,8.7,0,0,0-3.18,1.91,9.16,9.16,0,0,0-2.14,3.27,12.81,12.81,0,0,0-.79,4.72q0,5.28,2.93,7.83a11.62,11.62,0,0,0,7.92,2.56,12.72,12.72,0,0,0,4-.56,11.73,11.73,0,0,0,2.75-1.23,4.64,4.64,0,0,0,1.25-1.12,2.65,2.65,0,0,0,.41-1.54V4A2.33,2.33,0,0,0,104.91,2.1Zm-4.27,18-7.23,4a1.06,1.06,0,0,1-1.57-.94l.09-8.33a1,1,0,0,1,1.59-.89l7.15,4.32A1.06,1.06,0,0,1,100.64,20.05Z" transform="translate(-0.63 -0.39)"/><path class="cls-1" d="M181.39,9.62a3,3,0,0,0-2.5-1,5.76,5.76,0,0,0-1.59.22c-.5.15-.87.28-1.12.37V24.4a9.21,9.21,0,0,1-1.58.75,5.94,5.94,0,0,1-2.1.36,4.22,4.22,0,0,1-2.86-1,3.83,3.83,0,0,1-1.1-3V11.37a2.3,2.3,0,0,0-.71-1.94,3.71,3.71,0,0,0-2.23-.55,7.69,7.69,0,0,0-1.41.13c-.44.08-.77.16-1,.21V21.76q0,4,2.27,6a9,9,0,0,0,6.1,2,9.68,9.68,0,0,0,2.68-.34,12.36,12.36,0,0,0,1.93-.71v11.6a5.58,5.58,0,0,0,.78,3.42,3.06,3.06,0,0,0,2.5,1,5.43,5.43,0,0,0,1.6-.22c.49-.15.87-.27,1.12-.37V13A5.49,5.49,0,0,0,181.39,9.62Z" transform="translate(-0.63 -0.39)"/><path class="cls-2" d="M33.6,16,61.49,32.86a4.08,4.08,0,0,1,2,3.6l17.27-.37a7,7,0,0,0-1-3.6L63.35,4A7.16,7.16,0,0,0,57.16.44H24.27A7.13,7.13,0,0,0,21,1.23l8.14,14.92A4.07,4.07,0,0,1,33.6,16Z" transform="translate(-0.63 -0.39)"/><path class="cls-2" d="M27,52l.34-32.52a4.06,4.06,0,0,1,1.78-3.34L21,1.23A7.12,7.12,0,0,0,18.08,4L1.64,32.49a7.14,7.14,0,0,0,0,7.15L18.08,68.12a7,7,0,0,0,2.54,2.57l8.67-15A4.1,4.1,0,0,1,27,52Z" transform="translate(-0.63 -0.39)"/><path class="cls-2" d="M63.48,36.46A4.08,4.08,0,0,1,61.36,40L33.14,55.64a4,4,0,0,1-3.85.07l-8.67,15a7.11,7.11,0,0,0,3.65,1H57.16a7.14,7.14,0,0,0,6.19-3.58L79.79,39.64a7,7,0,0,0,1-3.55Z" transform="translate(-0.63 -0.39)"/><path class="cls-2" d="M65,38,37.39,19.77c-2.7-1.78-6.49-.35-6.81,2.55l-3.2,29.74c-.31,2.88,3,5.06,6,3.93l30.8-11.52A3.56,3.56,0,0,0,65,38Z" transform="translate(-0.63 -0.39)"/><path class="cls-2" d="M61.49,32.86,33.6,16a4.11,4.11,0,0,0-6.23,3.47L27,52a4.1,4.1,0,0,0,2.26,3.7,4,4,0,0,0,3.85-.07L61.36,40a4.1,4.1,0,0,0,.13-7.11Z" transform="translate(-0.63 -0.39)"/><path class="cls-3" d="M59.53,1.36H22.09a2,2,0,0,0-1.75,1L1.62,34.8a2,2,0,0,0,0,2L20.34,69.24a2,2,0,0,0,1.75,1H59.53a2,2,0,0,0,1.75-1L80,36.81a2,2,0,0,0,0-2L61.28,2.37A2,2,0,0,0,59.53,1.36Z" transform="translate(-0.63 -0.39)"/><path class="cls-2" d="M62.77,36.18l16.69-.42M21.79,2.21,29.5,16.59m.31,38.29L21.28,69.45M60.9,32.7l-27-16.28a4,4,0,0,0-6,3.36l-.33,31.43a4,4,0,0,0,5.9,3.52L60.77,39.58A4,4,0,0,0,60.9,32.7Z" transform="translate(-0.63 -0.39)"/><path class="cls-4" d="M33.79,16.55,60.94,32.94a4,4,0,0,1,1.94,3.51l16.81-.36a6.83,6.83,0,0,0-.93-3.5l-16-27.73a6.94,6.94,0,0,0-6-3.48h-32a6.91,6.91,0,0,0-3.18.77l7.93,14.53A3.94,3.94,0,0,1,33.79,16.55Z" transform="translate(-0.63 -0.39)"/><path class="cls-5" d="M27.4,51.59l.32-31.66a3.91,3.91,0,0,1,1.74-3.25L21.53,2.15a6.94,6.94,0,0,0-2.85,2.71l-16,27.73a7,7,0,0,0,0,7l16,27.73a6.89,6.89,0,0,0,2.47,2.5l8.44-14.59A4,4,0,0,1,27.4,51.59Z" transform="translate(-0.63 -0.39)"/><path class="cls-6" d="M62.88,36.45a4,4,0,0,1-2.06,3.42L33.34,55.12a3.93,3.93,0,0,1-3.75.07L21.15,69.78a7,7,0,0,0,3.56,1h32a7,7,0,0,0,6-3.48l16-27.73a6.88,6.88,0,0,0,.93-3.46Z" transform="translate(-0.63 -0.39)"/><path class="cls-7" d="M64.34,37.93,37.48,20.2c-2.63-1.73-6.32-.34-6.63,2.49L27.73,51.63c-.3,2.81,3,4.93,5.88,3.84l30-11.22A3.47,3.47,0,0,0,64.34,37.93Z" transform="translate(-0.63 -0.39)"/><path class="cls-2" d="M60.94,32.94,33.79,16.55a4,4,0,0,0-6.07,3.38L27.4,51.59a4,4,0,0,0,5.94,3.53L60.82,39.87a4,4,0,0,0,.12-6.93Z" transform="translate(-0.63 -0.39)"/><path class="cls-8" d="M52.21,38,39.16,29.37A2,2,0,0,0,36,30.58L34.43,44.63a2,2,0,0,0,2.86,1.86l14.56-5.44A1.69,1.69,0,0,0,52.21,38Z" transform="translate(-0.63 -0.39)"/><path class="cls-1" d="M51.88,34.71,37.43,26a2.13,2.13,0,0,0-3.23,1.8L34,44.64a2.13,2.13,0,0,0,3.16,1.88L51.82,38.4a2.14,2.14,0,0,0,.06-3.69Z" transform="translate(-0.63 -0.39)"/></svg>
