<svg xmlns="http://www.w3.org/2000/svg" xmlns:xlink="http://www.w3.org/1999/xlink" viewBox="0 0 569.51 294.67"><defs><style>.cls-1{fill:#440641;}.cls-2{fill:#fff;}.cls-2,.cls-3,.cls-4,.cls-5,.cls-6{stroke:#fff;stroke-miterlimit:10;stroke-width:0.1px;}.cls-3{fill:none;}.cls-4{fill:url(#linear-gradient);}.cls-5{fill:url(#linear-gradient-2);}.cls-6{fill:url(#linear-gradient-3);}.cls-7{fill:url(#linear-gradient-4);}.cls-8{fill:url(#linear-gradient-5);}</style><linearGradient id="linear-gradient" x1="157.37" y1="92.17" x2="153.81" y2="-90.28" gradientUnits="userSpaceOnUse"><stop offset="0.13" stop-color="#0f7087"/><stop offset="0.35" stop-color="#519fb2"/><stop offset="0.65" stop-color="#a6dce9"/><stop offset="0.79" stop-color="#c7f4ff"/></linearGradient><linearGradient id="linear-gradient-2" x1="99.77" y1="83.94" x2="-27.95" y2="183.94" gradientUnits="userSpaceOnUse"><stop offset="0.15" stop-color="#ffc803"/><stop offset="0.23" stop-color="#ffd230"/><stop offset="0.32" stop-color="#ffdb5c"/><stop offset="0.41" stop-color="#ffe280"/><stop offset="0.51" stop-color="#ffe89c"/><stop offset="0.6" stop-color="#ffedb0"/><stop offset="0.7" stop-color="#ffefbc"/><stop offset="0.79" stop-color="#fff0c0"/></linearGradient><linearGradient id="linear-gradient-3" x1="122.93" y1="146.43" x2="283.7" y2="235.26" gradientUnits="userSpaceOnUse"><stop offset="0" stop-color="#d9167e"/><stop offset="0.19" stop-color="#d9167e"/><stop offset="0.23" stop-color="#db1f83"/><stop offset="0.28" stop-color="#e13792"/><stop offset="0.29" stop-color="#e13993"/><stop offset="0.37" stop-color="#e64ea0"/><stop offset="0.48" stop-color="#ee73b6"/><stop offset="0.51" stop-color="#f388c3"/><stop offset="0.56" stop-color="#f89fd1"/><stop offset="0.62" stop-color="#fcb0db"/><stop offset="0.68" stop-color="#febae1"/><stop offset="0.76" stop-color="#ffbde3"/></linearGradient><linearGradient id="linear-gradient-4" x1="150.59" y1="148.56" x2="233.63" y2="242.93" gradientTransform="matrix(0.98, 0.09, -0.09, 0.91, -3.81, -23.7)" gradientUnits="userSpaceOnUse"><stop offset="0"/><stop offset="0.67" stop-color="#d1d1d1" stop-opacity="0"/></linearGradient><linearGradient id="linear-gradient-5" x1="147.95" y1="144.68" x2="188.27" y2="190.5" xlink:href="#linear-gradient-4"/></defs><title>Asset 2</title><g id="Layer_2" data-name="Layer 2"><g id="Layer_1-2" data-name="Layer 1"><path class="cls-1" d="M318.22,203.16a12,12,0,0,0,7.11,1.83,20,20,0,0,0,4.5-.52,23.63,23.63,0,0,0,4.11-1.31,9.16,9.16,0,0,1,1.76,2.55,7.9,7.9,0,0,1,.72,3.46,7.66,7.66,0,0,1-3.52,6.45q-3.52,2.55-11.35,2.55-10.31,0-16.24-4.63t-5.94-15.33V138.33c.7-.17,1.72-.39,3.07-.65a23,23,0,0,1,4.37-.4q4.56,0,6.72,1.7t2.15,6v10.83h19.18a12.15,12.15,0,0,1,1.17,2.74,12.29,12.29,0,0,1,.52,3.65c0,2.26-.52,3.92-1.56,5a5.68,5.68,0,0,1-4.18,1.56H315.68v28.44Q315.68,201.34,318.22,203.16Z"/><path class="cls-1" d="M361.6,192.86q1.83,6.64,6.78,9.65a23.34,23.34,0,0,0,12.27,3,30.19,30.19,0,0,0,10.11-1.63,37.46,37.46,0,0,0,7.5-3.46,8.67,8.67,0,0,1,3,2.87,7.16,7.16,0,0,1,1.17,3.92,6.82,6.82,0,0,1-1.76,4.63,14.34,14.34,0,0,1-4.82,3.46,30.55,30.55,0,0,1-7.25,2.21,48.09,48.09,0,0,1-9,.79,44.61,44.61,0,0,1-14-2.09,28.56,28.56,0,0,1-10.83-6.33,29.28,29.28,0,0,1-7-10.5,38.52,38.52,0,0,1-2.55-14.61,36.8,36.8,0,0,1,2.48-14.09,28.76,28.76,0,0,1,6.72-10,26.88,26.88,0,0,1,9.85-6,35.66,35.66,0,0,1,11.87-2,32.89,32.89,0,0,1,11.74,2,26.91,26.91,0,0,1,9.13,5.61,25.55,25.55,0,0,1,5.94,8.61A27.45,27.45,0,0,1,405,179.81a7.29,7.29,0,0,1-1.89,5.48,9.45,9.45,0,0,1-5.28,2.35Zm14.48-27.79a14.67,14.67,0,0,0-10.7,4.24q-4.31,4.24-4.82,12.07l29-4.31a14.52,14.52,0,0,0-3.79-8.41Q382.48,165.08,376.08,165.07Z"/><path class="cls-1" d="M449.79,165.85a19.62,19.62,0,0,0-7.24,1.31,16.05,16.05,0,0,0-5.74,3.78,18.1,18.1,0,0,0-3.85,6.13,23.07,23.07,0,0,0-1.44,8.48q0,9.66,5.09,14.55T449.79,205a22.53,22.53,0,0,0,7.89-1.24,45.39,45.39,0,0,0,5.94-2.67,11.41,11.41,0,0,1,2.93,3,7,7,0,0,1,1.11,3.91q0,4.44-5.22,7.31t-14.09,2.87a43.65,43.65,0,0,1-13.63-2A28.18,28.18,0,0,1,424.09,210a27.35,27.35,0,0,1-6.85-10.24,38.58,38.58,0,0,1-2.41-14.22,36.88,36.88,0,0,1,2.6-14.41,28.35,28.35,0,0,1,17.62-16.44,39.7,39.7,0,0,1,12.78-2q8.75,0,14,3.06t5.22,7.5A6.76,6.76,0,0,1,465.9,167a10.36,10.36,0,0,1-2.55,2.74,48.32,48.32,0,0,0-5.8-2.68A21.66,21.66,0,0,0,449.79,165.85Z"/><path class="cls-1" d="M532,159.32q-7.14-6.19-19.15-6.2a30.82,30.82,0,0,0-8.39,1.06,38.08,38.08,0,0,0-5.15,1.85V119.94q0-7.69-2.47-10.72t-7.85-3a17.19,17.19,0,0,0-5,.7c-1.54.46-2.71.85-3.51,1.16v97.35a29,29,0,0,0,.65,6.64c.21,2.17.9,3.77,2.15,4.72a7.37,7.37,0,0,0,1,.57,10.73,10.73,0,0,0,6.56,1.82,17.41,17.41,0,0,0,5-.7c1.55-.47,2.72-.86,3.52-1.17v-48a29.79,29.79,0,0,1,4-1.86,18.9,18.9,0,0,1,6.6-1.13,13.19,13.19,0,0,1,9,3q3.43,3,3.44,9.57V210.7c0,2.9.75,4.93,2.24,6.07s3.83,1.72,7,1.72a22.87,22.87,0,0,0,4.43-.4c1.36-.26,2.39-.48,3.1-.66V178.08Q539.09,165.54,532,159.32Z"/><path class="cls-1" d="M345.26,9.18a8.83,8.83,0,0,1,2.67-6.46A9.3,9.3,0,0,1,354.78.05a9.07,9.07,0,0,1,6.79,2.67,8.93,8.93,0,0,1,2.61,6.46,9,9,0,0,1-9.4,9.26,9.3,9.3,0,0,1-6.85-2.67A9,9,0,0,1,345.26,9.18Zm1.31,18.92c.69-.18,1.71-.39,3.06-.65a22.32,22.32,0,0,1,4.37-.4c3.13,0,5.42.57,6.85,1.7s2.15,3.13,2.15,6V89.28c-.69.17-1.72.39-3.06.65a23.14,23.14,0,0,1-4.37.39c-3.13,0-5.42-.56-6.85-1.69s-2.15-3.13-2.15-6Z"/><path class="cls-1" d="M412.05,38.93a19.66,19.66,0,0,0-7.24,1.3A16.14,16.14,0,0,0,399.07,44a18.36,18.36,0,0,0-3.85,6.13,23.29,23.29,0,0,0-1.43,8.48q0,9.66,5.09,14.55t13.17,4.89a22.55,22.55,0,0,0,7.9-1.24,44,44,0,0,0,5.93-2.67,11.3,11.3,0,0,1,2.94,3,7,7,0,0,1,1.1,3.91q0,4.44-5.21,7.31t-14.09,2.87a44,44,0,0,1-13.63-2,28.37,28.37,0,0,1-10.64-6.14,27.47,27.47,0,0,1-6.85-10.24,38.58,38.58,0,0,1-2.41-14.22,36.88,36.88,0,0,1,2.61-14.41,28.36,28.36,0,0,1,17.61-16.44,39.72,39.72,0,0,1,12.79-2c5.82,0,10.48,1,13.95,3.07s5.22,4.54,5.22,7.5a6.75,6.75,0,0,1-1.11,3.78,10.33,10.33,0,0,1-2.54,2.74,49,49,0,0,0-5.8-2.68A21.73,21.73,0,0,0,412.05,38.93Z"/><path class="cls-1" d="M454.84,65.93q1.83,6.64,6.79,9.65a23.28,23.28,0,0,0,12.26,3A30.19,30.19,0,0,0,484,77a37.22,37.22,0,0,0,7.5-3.45,8.49,8.49,0,0,1,3,2.87,7.1,7.1,0,0,1,1.17,3.91,6.82,6.82,0,0,1-1.76,4.63,14.34,14.34,0,0,1-4.82,3.46,30.6,30.6,0,0,1-7.24,2.22,49.13,49.13,0,0,1-9,.78,44.63,44.63,0,0,1-14-2.09A28.56,28.56,0,0,1,448,83a29.2,29.2,0,0,1-7-10.5,38.53,38.53,0,0,1-2.54-14.61,36.8,36.8,0,0,1,2.47-14.09,28.76,28.76,0,0,1,6.72-10,26.88,26.88,0,0,1,9.85-6,35.66,35.66,0,0,1,11.87-2,32.89,32.89,0,0,1,11.74,2,27.06,27.06,0,0,1,9.14,5.61A25.53,25.53,0,0,1,496.13,42a27.28,27.28,0,0,1,2.15,10.89q0,3.66-1.89,5.48a9.45,9.45,0,0,1-5.28,2.35Zm14.48-27.79a14.65,14.65,0,0,0-10.69,4.24c-2.87,2.83-4.49,6.85-4.83,12.07l29-4.31A14.57,14.57,0,0,0,479,41.73Q475.71,38.15,469.32,38.14Z"/><path class="cls-1" d="M327.06,5.27q-2.15-1.69-6.84-1.7a27.06,27.06,0,0,0-4.37.33,16.29,16.29,0,0,0-3.07.72V28.23a33.73,33.73,0,0,0-5.61-1.76,29.6,29.6,0,0,0-6.65-.72,38.06,38.06,0,0,0-12.4,2,26.75,26.75,0,0,0-10,6A28.56,28.56,0,0,0,271.43,44,39.63,39.63,0,0,0,269,58.75q0,16.57,9.19,24.59t24.86,8a39.79,39.79,0,0,0,12.39-1.76A39.07,39.07,0,0,0,324,85.76a14.4,14.4,0,0,0,3.91-3.52,8.15,8.15,0,0,0,1.31-4.83V11.27Q329.22,7,327.06,5.27ZM313.67,61.59,291,74.19a3.31,3.31,0,0,1-4.91-2.93l.27-26.13a3.31,3.31,0,0,1,5-2.8l22.42,13.54A3.3,3.3,0,0,1,313.67,61.59Z"/><path class="cls-1" d="M567.05,28.85c-1.65-2-4.26-3-7.85-3a17.43,17.43,0,0,0-5,.7q-2.33.7-3.51,1.17V75.23a30.92,30.92,0,0,1-4.94,2.37,19,19,0,0,1-6.6,1.12,13.24,13.24,0,0,1-9-3q-3.43-3-3.43-9.58V34.35c0-2.91-.75-4.93-2.25-6.08s-3.83-1.71-7-1.71a23.68,23.68,0,0,0-4.42.39c-1.36.27-2.4.49-3.1.66V67q0,12.54,7.13,18.75t19.15,6.2a31.15,31.15,0,0,0,8.38-1,39,39,0,0,0,6.06-2.24V125c0,5.12.82,8.7,2.46,10.71s4.26,3,7.85,3a17.14,17.14,0,0,0,5-.7c1.55-.46,2.72-.85,3.51-1.16V39.56Q569.51,31.88,567.05,28.85Z"/><path class="cls-2" d="M103.35,48.93l87.51,52.84a12.78,12.78,0,0,1,6.22,11.29l54.2-1.14a22.49,22.49,0,0,0-3-11.29l-51.6-89.36A22.42,22.42,0,0,0,177.26.05H74.07A22.39,22.39,0,0,0,63.84,2.53L89.38,49.36A12.78,12.78,0,0,1,103.35,48.93Z"/><path class="cls-2" d="M82.74,161.85l1.05-102a12.74,12.74,0,0,1,5.59-10.47L63.84,2.53a22.33,22.33,0,0,0-9.19,8.74L3.06,100.63a22.41,22.41,0,0,0,0,22.43l51.59,89.36a22.42,22.42,0,0,0,8,8.05l27.21-47A12.78,12.78,0,0,1,82.74,161.85Z"/><path class="cls-2" d="M197.08,113.06a12.75,12.75,0,0,1-6.63,11L101.9,173.26a12.73,12.73,0,0,1-12.08.2l-27.21,47a22.41,22.41,0,0,0,11.46,3.16H177.26a22.41,22.41,0,0,0,19.42-11.21l51.6-89.36a22.38,22.38,0,0,0,3-11.14Z"/><path class="cls-2" d="M201.79,117.84,115.23,60.7c-8.46-5.58-20.36-1.1-21.35,8L83.82,162c-1,9,9.53,15.88,19,12.35l96.63-36.14C208.86,134.68,210.18,123.37,201.79,117.84Z"/><path class="cls-2" d="M190.86,101.77,103.35,48.93a12.91,12.91,0,0,0-19.56,10.9l-1.05,102a12.93,12.93,0,0,0,19.16,11.41l88.55-49.18a12.9,12.9,0,0,0,.41-22.31Z"/><path class="cls-3" d="M180,3H71.91a14.45,14.45,0,0,0-12.52,7.22l-54,93.63a14.44,14.44,0,0,0,0,14.44l54.05,93.63a14.45,14.45,0,0,0,12.52,7.22H180a14.44,14.44,0,0,0,12.51-7.22l54.06-93.63a14.44,14.44,0,0,0,0-14.44L192.52,10.17A14.44,14.44,0,0,0,180,3Z"/><path class="cls-2" d="M194.87,112.2l52.37-1.34M66.28,5.62,90.49,50.74m1,120.12L64.68,216.59M189,101.29,104.38,50.2a12.46,12.46,0,0,0-18.9,10.54l-1,98.63a12.46,12.46,0,0,0,18.51,11l85.61-47.54A12.46,12.46,0,0,0,189,101.29Z"/><path class="cls-4" d="M103.94,50.59,189.13,102a12.41,12.41,0,0,1,6.06,11L248,111.92a21.89,21.89,0,0,0-2.92-11l-50.23-87A21.85,21.85,0,0,0,175.89,3H75.44a21.8,21.8,0,0,0-10,2.41L90.34,51A12.47,12.47,0,0,1,103.94,50.59Z"/><path class="cls-5" d="M83.88,160.53l1-99.32A12.37,12.37,0,0,1,90.34,51L65.47,5.42a21.91,21.91,0,0,0-8.95,8.5l-50.22,87a21.85,21.85,0,0,0,0,21.84l50.22,87a21.92,21.92,0,0,0,7.76,7.84l26.49-45.77A12.42,12.42,0,0,1,83.88,160.53Z"/><path class="cls-6" d="M195.19,113a12.44,12.44,0,0,1-6.45,10.73l-86.22,47.87a12.35,12.35,0,0,1-11.75.2L64.28,217.6a21.77,21.77,0,0,0,11.16,3.08H175.89a21.83,21.83,0,0,0,18.92-10.92l50.23-87A21.85,21.85,0,0,0,248,111.92Z"/><path class="cls-7" d="M199.78,117.68,115.5,62.05c-8.23-5.43-19.82-1.07-20.78,7.81l-9.79,90.82c-1,8.8,9.27,15.47,18.45,12l94.08-35.19C206.66,134.08,208,123.07,199.78,117.68Z"/><path class="cls-2" d="M189.13,102,103.94,50.59a12.57,12.57,0,0,0-19,10.62l-1,99.32a12.58,12.58,0,0,0,18.64,11.1l86.22-47.87a12.56,12.56,0,0,0,.39-21.72Z"/><path class="cls-8" d="M161.72,117.84l-40.92-27c-4-2.64-9.62-.52-10.09,3.79L106,138.71c-.46,4.28,4.51,7.51,9,5.85l45.67-17.09C165.06,125.8,165.69,120.45,161.72,117.84Z"/><path class="cls-1" d="M160.7,107.6,115.36,80.21a6.7,6.7,0,0,0-10.14,5.65l-.54,52.87a6.69,6.69,0,0,0,9.92,5.91l45.89-25.48a6.68,6.68,0,0,0,.21-11.56Z"/><path class="cls-1" d="M73.14,264.8l.24,9.18-.31-.78a12.48,12.48,0,0,1,5-6.53,14.06,14.06,0,0,1,8-2.41,9.83,9.83,0,0,1,7.85,3.85,6.79,6.79,0,0,1,1.4,3.93l-.31.46a11.5,11.5,0,0,1,5-6.14,14.68,14.68,0,0,1,7.7-2.1,9.14,9.14,0,0,1,6.57,2.33,8.15,8.15,0,0,1,2.61,5.68V294.2H115.3V272.66a7.08,7.08,0,0,0-2-4.78,8.1,8.1,0,0,0-5.6-2.3,12.59,12.59,0,0,0-6,1.48,12.79,12.79,0,0,0-4.59,4,10.43,10.43,0,0,0-1.94,5.63v17.5H93.68V272.66a7.46,7.46,0,0,0-2.1-4.78,8.1,8.1,0,0,0-5.6-2.3,12.78,12.78,0,0,0-6.11,1.52,12.57,12.57,0,0,0-4.59,4.12,10.48,10.48,0,0,0-1.75,5.95v17H72V264.8Z"/><path class="cls-1" d="M143.54,294.67a14.71,14.71,0,0,1-7.63-2,15.47,15.47,0,0,1-5.48-5.45,14.64,14.64,0,0,1-2.06-7.7,15.62,15.62,0,0,1,2.1-8.32A13.92,13.92,0,0,1,136,266a16.65,16.65,0,0,1,7.74-1.79,14.38,14.38,0,0,1,8.36,2.61,15.09,15.09,0,0,1,5.48,6.73l-.15,1,.39-9.73H159v29.4h-1.47v-10l.23,1.09a13.61,13.61,0,0,1-2.18,3.73,15.81,15.81,0,0,1-3.26,3,15.65,15.65,0,0,1-4.09,2A15.45,15.45,0,0,1,143.54,294.67Zm.15-1.32a14.11,14.11,0,0,0,6.92-1.71,13.25,13.25,0,0,0,5-4.71,13.11,13.11,0,0,0,1.95-6.8v-3.19a13.61,13.61,0,0,0-2.61-5.76,15.15,15.15,0,0,0-4.9-4.12,13.23,13.23,0,0,0-6.34-1.56,14.35,14.35,0,0,0-7,1.71,12.74,12.74,0,0,0-5,4.87,14.37,14.37,0,0,0-1.83,7.35,13.6,13.6,0,0,0,1.87,7,14.14,14.14,0,0,0,5,5A13.13,13.13,0,0,0,143.69,293.35Z"/><path class="cls-1" d="M173.64,294.2V235.71h1.55V294.2Zm.85-11.51-.08-1.71,18-16.72,1,.86Zm7.16-7.31,13.76,18.82h-1.78l-13.23-18Z"/><path class="cls-1" d="M216.88,294.67a15.05,15.05,0,0,1-7.74-2,15.42,15.42,0,0,1-5.52-5.48,15.5,15.5,0,0,1,0-15.44,15.59,15.59,0,0,1,5.52-5.57,14.89,14.89,0,0,1,7.74-2.06,12.49,12.49,0,0,1,8.29,2.84,17.81,17.81,0,0,1,5.09,7.12l-26.68,10.81-.46-1.32,25.82-10.42-.39.77a17.31,17.31,0,0,0-4.63-5.91,10.76,10.76,0,0,0-7.11-2.49,13.26,13.26,0,0,0-6.93,1.87,13.94,13.94,0,0,0-6.76,12.06,14.08,14.08,0,0,0,1.71,6.76,13.9,13.9,0,0,0,4.78,5.18,13.13,13.13,0,0,0,7.27,2,13.54,13.54,0,0,0,5.18-1,14.61,14.61,0,0,0,4.31-2.72l1,1.08a17.06,17.06,0,0,1-4.78,2.88A15,15,0,0,1,216.88,294.67Z"/><path class="cls-1" d="M276.46,294.67a14.67,14.67,0,0,1-7.62-2,15.47,15.47,0,0,1-5.48-5.45,14.56,14.56,0,0,1-2.07-7.7,15.62,15.62,0,0,1,2.1-8.32A13.94,13.94,0,0,1,269,266a16.58,16.58,0,0,1,7.73-1.79,14.41,14.41,0,0,1,8.37,2.61,15.09,15.09,0,0,1,5.48,6.73l-.16,1,.39-9.73h1.17v29.4h-1.48v-10l.24,1.09a13.61,13.61,0,0,1-2.18,3.73,15.86,15.86,0,0,1-3.27,3,15.34,15.34,0,0,1-8.79,2.68Zm.16-1.32a14.11,14.11,0,0,0,6.92-1.71,13.4,13.4,0,0,0,5-4.71,13.11,13.11,0,0,0,1.94-6.8v-3.19a13.47,13.47,0,0,0-2.6-5.76,15.26,15.26,0,0,0-4.9-4.12,13.25,13.25,0,0,0-6.34-1.56,14.35,14.35,0,0,0-7,1.71,12.74,12.74,0,0,0-5,4.87,14.37,14.37,0,0,0-1.83,7.35,13.51,13.51,0,0,0,1.87,7,14.12,14.12,0,0,0,5,5A13.19,13.19,0,0,0,276.62,293.35Z"/><path class="cls-1" d="M307.73,264.8l.31,9.49-.23-1.09a11.53,11.53,0,0,1,4.86-6.57,14.36,14.36,0,0,1,8.05-2.37,8.88,8.88,0,0,1,6.57,2.45,8.71,8.71,0,0,1,2.53,6.26V294.2h-1.56V273.13a7.71,7.71,0,0,0-2.06-5.25,7.79,7.79,0,0,0-5.64-2.3,13.3,13.3,0,0,0-6.1,1.44,11.9,11.9,0,0,0-4.59,4.05,10.64,10.64,0,0,0-1.75,6.1v17h-1.56V264.8Z"/><path class="cls-1" d="M356.5,294.67a14.87,14.87,0,0,1-7.66-2,15,15,0,0,1-7.51-13.22,15.32,15.32,0,0,1,2.06-8,14.53,14.53,0,0,1,5.52-5.32,15.67,15.67,0,0,1,7.67-1.91,14.62,14.62,0,0,1,8.59,2.76,15.67,15.67,0,0,1,5.64,6.89l-.31.93v-39h1.55V294.2H370.5V284.09l.23,1.25a14.88,14.88,0,0,1-5.56,6.73A15.18,15.18,0,0,1,356.5,294.67Zm.15-1.32a13.87,13.87,0,0,0,7-1.79,13.66,13.66,0,0,0,5-4.82,12.76,12.76,0,0,0,1.87-6.85v-2.56a13.59,13.59,0,0,0-2.53-5.95A14.75,14.75,0,0,0,363,267.1a13.27,13.27,0,0,0-6.38-1.6,14.12,14.12,0,0,0-7,1.75,13.05,13.05,0,0,0-4.94,4.9,14.23,14.23,0,0,0-1.82,7.28,13.66,13.66,0,0,0,1.86,7,14.18,14.18,0,0,0,5,5.05A13.13,13.13,0,0,0,356.65,293.35Z"/><path class="cls-1" d="M410.09,235.71h1.55V294.2h-1.55Z"/><path class="cls-1" d="M438.48,294.67a15.05,15.05,0,0,1-7.74-2,15.34,15.34,0,0,1-5.52-5.48,15.5,15.5,0,0,1,0-15.44,15.51,15.51,0,0,1,5.52-5.57,14.89,14.89,0,0,1,7.74-2.06,12.44,12.44,0,0,1,8.28,2.84,17.74,17.74,0,0,1,5.1,7.12l-26.68,10.81-.47-1.32,25.82-10.42-.38.77a17.43,17.43,0,0,0-4.63-5.91,10.79,10.79,0,0,0-7.12-2.49,13.22,13.22,0,0,0-6.92,1.87,14,14,0,0,0-6.77,12.06,14.08,14.08,0,0,0,1.71,6.76,13.93,13.93,0,0,0,4.79,5.18,13.1,13.1,0,0,0,7.27,2,13.49,13.49,0,0,0,5.17-1,14.79,14.79,0,0,0,4.32-2.72l1,1.08a17.21,17.21,0,0,1-4.78,2.88A15,15,0,0,1,438.48,294.67Z"/><path class="cls-1" d="M474.65,294.67a14.73,14.73,0,0,1-7.63-2,15.47,15.47,0,0,1-5.48-5.45,14.64,14.64,0,0,1-2.06-7.7,15.62,15.62,0,0,1,2.1-8.32,13.92,13.92,0,0,1,5.56-5.21,16.65,16.65,0,0,1,7.74-1.79,14.38,14.38,0,0,1,8.36,2.61,15,15,0,0,1,5.48,6.73l-.15,1,.39-9.73h1.16v29.4h-1.47v-10l.23,1.09A13.37,13.37,0,0,1,486.7,289a15.81,15.81,0,0,1-3.26,3,15.65,15.65,0,0,1-4.09,2A15.4,15.4,0,0,1,474.65,294.67Zm.15-1.32a14.11,14.11,0,0,0,6.92-1.71,13.25,13.25,0,0,0,5-4.71,13.11,13.11,0,0,0,1.95-6.8v-3.19a13.61,13.61,0,0,0-2.61-5.76,15,15,0,0,0-4.9-4.12,13.23,13.23,0,0,0-6.34-1.56,14.35,14.35,0,0,0-7,1.71,12.74,12.74,0,0,0-5,4.87,14.37,14.37,0,0,0-1.83,7.35,13.6,13.6,0,0,0,1.87,7,14.23,14.23,0,0,0,5,5A13.13,13.13,0,0,0,474.8,293.35Z"/><path class="cls-1" d="M505.91,264.8l.24,9.18-.16-.85a11.08,11.08,0,0,1,2.84-4.75,13.83,13.83,0,0,1,4.63-3,16,16,0,0,1,5.52-1.13l-.08,1.4a14,14,0,0,0-6.3,1.59,12.29,12.29,0,0,0-4.59,4.09,10.41,10.41,0,0,0-1.71,5.91V294.2h-1.55V264.8Z"/><path class="cls-1" d="M530.88,264.8l.31,9.49L531,273.2a11.53,11.53,0,0,1,4.86-6.57,14.36,14.36,0,0,1,8-2.37,8.88,8.88,0,0,1,6.57,2.45A8.71,8.71,0,0,1,553,273V294.2h-1.55V273.13a7.46,7.46,0,0,0-7.71-7.55,13.3,13.3,0,0,0-6.1,1.44,12,12,0,0,0-4.59,4.05,10.64,10.64,0,0,0-1.75,6.1v17h-1.56V264.8Z"/></g></g></svg>
